<svg width="23" height="23" viewBox="0 0 23 23" fill="none" xmlns="http://www.w3.org/2000/svg">
<path d="M11.5022 11.8951C11.2853 11.8951 11.1094 11.7192 11.1094 11.5022C11.1094 11.2853 11.2853 11.1094 11.5022 11.1094" stroke="#1F2232" stroke-width="1.57143" stroke-linecap="round" stroke-linejoin="round"/>
<path d="M11.5 11.8951C11.717 11.8951 11.8929 11.7192 11.8929 11.5022C11.8929 11.2853 11.717 11.1094 11.5 11.1094" stroke="#1F2232" stroke-width="2.2" stroke-linecap="round" stroke-linejoin="round"/>
<path d="M7.18192 11.8951C6.96495 11.8951 6.78906 11.7192 6.78906 11.5022C6.78906 11.2853 6.96495 11.1094 7.18192 11.1094" stroke="#1F2232" stroke-width="1.57143" stroke-linecap="round" stroke-linejoin="round"/>
<path d="M7.17969 11.8951C7.39666 11.8951 7.57254 11.7192 7.57254 11.5022C7.57254 11.2853 7.39666 11.1094 7.17969 11.1094" stroke="#1F2232" stroke-width="2.2" stroke-linecap="round" stroke-linejoin="round"/>
<path d="M15.8225 11.8951C15.6056 11.8951 15.4297 11.7192 15.4297 11.5022C15.4297 11.2853 15.6056 11.1094 15.8225 11.1094" stroke="#1F2232" stroke-width="1.57143" stroke-linecap="round" stroke-linejoin="round"/>
<path d="M15.8203 11.8951C16.0373 11.8951 16.2132 11.7192 16.2132 11.5022C16.2132 11.2853 16.0373 11.1094 15.8203 11.1094" stroke="#1F2232" stroke-width="2.2" stroke-linecap="round" stroke-linejoin="round"/>
<path d="M11.4943 1.38281C9.66386 1.38338 7.86785 1.88043 6.29756 2.82102C4.72727 3.76161 3.44151 5.11051 2.57723 6.72406C1.71294 8.3376 1.3025 10.1554 1.38962 11.9837C1.47673 13.8121 2.05815 15.5826 3.07193 17.1067L1.375 21.6214L7.05738 20.5939C8.42568 21.2626 9.92725 21.6138 11.4502 21.6213C12.9731 21.6288 14.4781 21.2925 15.8529 20.6375C17.2278 19.9824 18.437 19.0255 19.3906 17.838C20.3441 16.6505 21.0173 15.2632 21.36 13.7793C21.7027 12.2954 21.7061 10.7533 21.3699 9.26798C21.0336 7.78262 20.3665 6.39232 19.4181 5.2007C18.4698 4.00908 17.2647 3.04688 15.8927 2.38582C14.5207 1.72477 13.0172 1.38192 11.4943 1.38281V1.38281Z" stroke="#1F2232" stroke-width="2.2" stroke-linecap="round" stroke-linejoin="round"/>
</svg>
