<svg width="19" height="18" viewBox="0 0 19 18" fill="none" xmlns="http://www.w3.org/2000/svg">
<path d="M9.75002 1.5C8.76511 1.5 7.78984 1.69399 6.8799 2.0709C5.96995 2.44781 5.14316 3.00026 4.44672 3.6967C3.0402 5.10322 2.25002 7.01088 2.25002 9C2.24346 10.7319 2.84312 12.4114 3.94502 13.7475L2.44502 15.2475C2.34095 15.353 2.27046 15.4869 2.24243 15.6324C2.2144 15.7779 2.23009 15.9284 2.28752 16.065C2.34981 16.1999 2.4508 16.3133 2.57766 16.3908C2.70451 16.4682 2.85152 16.5063 3.00002 16.5H9.75002C11.7391 16.5 13.6468 15.7098 15.0533 14.3033C16.4598 12.8968 17.25 10.9891 17.25 9C17.25 7.01088 16.4598 5.10322 15.0533 3.6967C13.6468 2.29018 11.7391 1.5 9.75002 1.5ZM9.75002 15H4.80752L5.50502 14.3025C5.64471 14.162 5.72312 13.9719 5.72312 13.7738C5.72312 13.5756 5.64471 13.3855 5.50502 13.245C4.52296 12.264 3.9114 10.9729 3.77454 9.59159C3.63768 8.21029 3.98398 6.82425 4.75444 5.66964C5.52491 4.51503 6.67186 3.66327 7.99991 3.25948C9.32795 2.85569 10.7549 2.92485 12.0377 3.45519C13.3205 3.98552 14.3797 4.94421 15.0349 6.16792C15.69 7.39163 15.9007 8.80466 15.6309 10.1663C15.3611 11.5279 14.6275 12.7538 13.5552 13.6352C12.4828 14.5166 11.1381 14.9989 9.75002 15Z" fill="#7B7B7B"/>
</svg>
