<?xml version="1.0" encoding="utf-8"?>
<!-- Generator: Adobe Illustrator 24.0.1, SVG Export Plug-In . SVG Version: 6.00 Build 0)  -->
<svg version="1.1" id="Layer_1" xmlns="http://www.w3.org/2000/svg" xmlns:xlink="http://www.w3.org/1999/xlink" x="0px" y="0px"
	 viewBox="0 0 108 102" style="enable-background:new 0 0 108 102;" xml:space="preserve">
<style type="text/css">
	.st0{fill:url(#SVGID_1_);}
	.st1{opacity:0.2;}
	.st2{opacity:0.5;fill:#E1F6F4;}
	.st3{fill:url(#SVGID_2_);fill-opacity:0.35;}
	.st4{fill:#FFFFFF;filter:url(#Adobe_OpacityMaskFilter);}
	.st5{mask:url(#h_1_);fill:url(#SVGID_3_);}
	.st6{fill-rule:evenodd;clip-rule:evenodd;fill:url(#SVGID_4_);}
	.st7{fill-rule:evenodd;clip-rule:evenodd;fill:#FFFFFF;filter:url(#Adobe_OpacityMaskFilter_1_);}
	.st8{mask:url(#i_1_);fill:url(#SVGID_5_);fill-opacity:0.5;}
</style>
<linearGradient id="SVGID_1_" gradientUnits="userSpaceOnUse" x1="3.453" y1="73.8195" x2="87.1936" y2="45.6527" gradientTransform="matrix(1 0 0 -1 0 104)">
	<stop  offset="0" style="stop-color:#25A0B0"/>
	<stop  offset="1" style="stop-color:#339999"/>
</linearGradient>
<path class="st0" d="M20.6,14l30.9-8.3c11.3-3,19.4,1.9,22.6,13.6l8.6,32.1c3.1,11.7-1.5,20-12.7,23.1L39,82.8
	c-11.3,3-19.4-1.9-22.5-13.6L7.9,37.1C4.8,25.4,9.4,17,20.6,14z"/>
<g class="st1">
	<g>
		<g>
			<path class="st2" d="M29.3,25.9l21-5.6c7.6-2,13.1,0.9,15.1,8.3l5.4,20.1c2,7.3-1.3,12.6-8.9,14.7l-21,5.6
				c-7.6,2-13.1-0.9-15-8.3l-5.4-20.1C18.5,33.2,21.7,27.9,29.3,25.9z"/>
		</g>
	</g>
</g>
<g>
	<linearGradient id="SVGID_2_" gradientUnits="userSpaceOnUse" x1="26.4411" y1="57.5783" x2="99.2852" y2="57.5783">
		<stop  offset="0" style="stop-color:#25A0B0"/>
		<stop  offset="1" style="stop-color:#339999"/>
	</linearGradient>
	<path class="st3" d="M78.7,21.2H47.1c-12.3,0-20.7,8.7-20.7,21.6v29.8c0,12.9,8.3,21.5,20.7,21.5h31.6c12.3,0,20.6-8.7,20.6-21.5
		V42.7C99.3,29.8,91,21.2,78.7,21.2z"/>
	<defs>
		<filter id="Adobe_OpacityMaskFilter" filterUnits="userSpaceOnUse" x="25.4" y="20.2" width="74.8" height="74.8">
			<feColorMatrix  type="matrix" values="1 0 0 0 0  0 1 0 0 0  0 0 1 0 0  0 0 0 1 0"/>
		</filter>
	</defs>
	<mask maskUnits="userSpaceOnUse" x="25.4" y="20.2" width="74.8" height="74.8" id="h_1_">
		<path class="st4" d="M25.4,20.2h75v75h-75L25.4,20.2z"/>
		<path d="M78.7,21.2H47.1c-12.3,0-20.7,8.7-20.7,21.6v29.8c0,12.9,8.3,21.5,20.7,21.5h31.6c12.3,0,20.6-8.7,20.6-21.5V42.7
			C99.3,29.8,91,21.2,78.7,21.2z"/>
	</mask>
	
		<linearGradient id="SVGID_3_" gradientUnits="userSpaceOnUse" x1="39.4146" y1="75.4698" x2="85.8814" y2="17.9196" gradientTransform="matrix(1 0 0 -1 0 104)">
		<stop  offset="0" style="stop-color:#FFFFFF;stop-opacity:0.25"/>
		<stop  offset="1" style="stop-color:#FFFFFF;stop-opacity:6.000000e-02"/>
	</linearGradient>
	<path class="st5" d="M78.7,22.2c0.6,0,1-0.4,1-1c0-0.6-0.4-1-1-1V22.2z M78.7,20.2c-0.6,0-1,0.4-1,1c0,0.6,0.4,1,1,1V20.2z
		 M78.7,20.2H47.1v2h31.6V20.2z M47.1,20.2c-6.4,0-11.9,2.3-15.7,6.3c-3.8,4-6,9.6-6,16.3h2c0-6.2,2-11.4,5.4-14.9
		c3.4-3.6,8.3-5.6,14.2-5.6V20.2z M25.4,42.7v29.8h2V42.7H25.4z M25.4,72.5c0,6.6,2.1,12.3,6,16.3c3.8,4,9.3,6.2,15.7,6.2v-2
		c-5.9,0-10.8-2.1-14.2-5.6c-3.4-3.6-5.4-8.7-5.4-14.9H25.4z M47.1,95h31.6v-2H47.1V95z M78.7,95c6.4,0,11.8-2.3,15.7-6.3
		c3.8-4,6-9.6,6-16.3h-2c0,6.2-2,11.3-5.4,14.9c-3.4,3.6-8.3,5.6-14.2,5.6V95z M100.3,72.5V42.7h-2v29.8H100.3z M100.3,42.7
		c0-6.7-2.1-12.3-6-16.3c-3.8-4-9.2-6.3-15.7-6.3v2c5.9,0,10.8,2.1,14.2,5.6c3.4,3.6,5.4,8.7,5.4,14.9H100.3z"/>
</g>
<g>
	
		<linearGradient id="SVGID_4_" gradientUnits="userSpaceOnUse" x1="88.9204" y1="43.4904" x2="27.8255" y2="41.3561" gradientTransform="matrix(1 0 0 -1 0 104)">
		<stop  offset="0" style="stop-color:#FFFFFF"/>
		<stop  offset="1" style="stop-color:#FFFFFF;stop-opacity:0.2"/>
	</linearGradient>
	<path class="st6" d="M41.1,44.9c0,5,4.1,9.1,9.1,9.1c5,0,9.1-4.1,9.1-9.1s-4.1-9.1-9.1-9.1C45.2,35.8,41.1,39.9,41.1,44.9z
		 M90.9,78.5c1.3-3.1,1.9-6.9,0.7-10c-0.4-1-1-2-1.9-2.9c-2.2-2.2-4.3-4.3-6.8-5.9c-3.9-2.4-6.9,1-7.8,2.1c-0.7,0.9-1.2,1.8-1.8,2.8
		c-0.1,0.2-0.2,0.4-0.4,0.6l0,0c-1.7,2.9-3.7,6.2-7.2,8.1c-5,2.8-8.8,0.2-11.6-1.6c-1-0.7-2-1.4-3-1.8c-2.5-1.1-4.7,0.1-7.9,4.3
		c-1.7,2.2-3.4,4.3-5.2,6.5c-1,1.3-0.8,3.3,0.6,4.1c2.2,1.4,4.9,2.1,8,2.1h30.8c1.7,0,3.5-0.2,5.1-0.8C86.4,85,89.3,82.2,90.9,78.5z
		"/>
	<defs>
		<filter id="Adobe_OpacityMaskFilter_1_" filterUnits="userSpaceOnUse" x="37.2" y="35.6" width="55.3" height="51.6">
			<feColorMatrix  type="matrix" values="1 0 0 0 0  0 1 0 0 0  0 0 1 0 0  0 0 0 1 0"/>
		</filter>
	</defs>
	<mask maskUnits="userSpaceOnUse" x="37.2" y="35.6" width="55.3" height="51.6" id="i_1_">
		<path class="st7" d="M41.1,44.9c0,5,4.1,9.1,9.1,9.1c5,0,9.1-4.1,9.1-9.1s-4.1-9.1-9.1-9.1C45.2,35.8,41.1,39.9,41.1,44.9z
			 M90.9,78.5c1.3-3.1,1.9-6.9,0.7-10c-0.4-1-1-2-1.9-2.9c-2.2-2.2-4.3-4.3-6.8-5.9c-3.9-2.4-6.9,1-7.8,2.1
			c-0.7,0.9-1.2,1.8-1.8,2.8c-0.1,0.2-0.2,0.4-0.4,0.6l0,0c-1.7,2.9-3.7,6.2-7.2,8.1c-5,2.8-8.8,0.2-11.6-1.6c-1-0.7-2-1.4-3-1.8
			c-2.5-1.1-4.7,0.1-7.9,4.3c-1.7,2.2-3.4,4.3-5.2,6.5c-1,1.3-0.8,3.3,0.6,4.1c2.2,1.4,4.9,2.1,8,2.1h30.8c1.7,0,3.5-0.2,5.1-0.8
			C86.4,85,89.3,82.2,90.9,78.5z"/>
	</mask>
	
		<linearGradient id="SVGID_5_" gradientUnits="userSpaceOnUse" x1="43.2724" y1="42.6478" x2="89.8526" y2="42.3723" gradientTransform="matrix(1 0 0 -1 0 104)">
		<stop  offset="0" style="stop-color:#FFFFFF"/>
		<stop  offset="1" style="stop-color:#FFFFFF;stop-opacity:0"/>
	</linearGradient>
	<path class="st8" d="M91.6,68.5l0.2-0.1l0,0L91.6,68.5z M90.9,78.5l-0.2-0.1l0,0L90.9,78.5z M89.7,65.6l0.1-0.1l0,0L89.7,65.6z
		 M82.9,59.7l-0.1,0.2l0,0L82.9,59.7z M75.1,61.8L75,61.7l0,0L75.1,61.8z M73.3,64.6l-0.2-0.1L73.3,64.6z M73,65.2l-0.2-0.1l0,0
		L73,65.2z M72.9,65.3l0.2,0.1L72.9,65.3z M65.8,73.4l0.1,0.2l0,0L65.8,73.4z M54.2,71.7l0.1-0.2l0,0L54.2,71.7z M51.2,69.9l0.1-0.2
		l0,0L51.2,69.9z M43.2,74.3l0.2,0.1l0,0L43.2,74.3z M38,80.7l-0.2-0.1l0,0L38,80.7z M38.7,84.9L38.5,85l0,0L38.7,84.9z M82.6,86.2
		L82.6,86L82.6,86.2z M50.2,53.9c-4.9,0-8.9-4-8.9-8.9h-0.4c0,5.2,4.2,9.3,9.3,9.3V53.9z M59.1,44.9c0,4.9-4,8.9-8.9,8.9v0.4
		c5.1,0,9.3-4.2,9.3-9.3H59.1z M50.2,36c4.9,0,8.9,4,8.9,8.9h0.4c0-5.2-4.2-9.3-9.3-9.3V36z M41.3,44.9c0-4.9,4-8.9,8.9-8.9v-0.4
		c-5.2,0-9.3,4.2-9.3,9.3H41.3z M91.4,68.5c1.2,3.1,0.6,6.8-0.7,9.9l0.4,0.2c1.3-3.1,2-7,0.7-10.2L91.4,68.5z M89.6,65.7
		c0.8,0.8,1.4,1.8,1.8,2.8l0.4-0.1c-0.4-1.1-1-2.1-1.9-2.9L89.6,65.7z M82.8,59.9c2.5,1.5,4.6,3.6,6.8,5.8l0.3-0.3
		c-2.2-2.2-4.4-4.3-6.9-5.9L82.8,59.9z M75.3,61.9c0.4-0.5,1.3-1.6,2.6-2.3c1.3-0.7,3-0.9,4.8,0.3l0.2-0.3c-2-1.3-3.8-1-5.2-0.3
		c-1.4,0.7-2.4,1.9-2.8,2.4L75.3,61.9z M73.5,64.7c0.6-1,1.2-1.9,1.8-2.8L75,61.7c-0.7,0.9-1.2,1.8-1.8,2.8L73.5,64.7z M73.1,65.3
		c0.1-0.2,0.2-0.4,0.4-0.6l-0.3-0.2c-0.1,0.2-0.2,0.4-0.4,0.6L73.1,65.3z M73.1,65.4L73.1,65.4l-0.3-0.3l0,0L73.1,65.4z M65.9,73.6
		c3.5-2,5.5-5.3,7.2-8.2l-0.3-0.2c-1.7,2.9-3.7,6.1-7.1,8L65.9,73.6z M54.1,71.9c1.4,0.9,3,2.1,5,2.6c2,0.5,4.2,0.5,6.8-0.9
		l-0.2-0.3c-2.5,1.4-4.6,1.4-6.5,0.9c-1.9-0.5-3.5-1.6-4.9-2.5L54.1,71.9z M51.1,70.1c1,0.4,2,1.1,3,1.8l0.2-0.3
		c-1-0.7-2-1.4-3.1-1.8L51.1,70.1z M43.4,74.4c1.6-2.1,3-3.4,4.2-4.1c1.2-0.7,2.3-0.7,3.5-0.2l0.2-0.4c-1.3-0.6-2.5-0.5-3.8,0.2
		c-1.3,0.7-2.7,2.1-4.3,4.2L43.4,74.4z M38.2,80.9c1.7-2.2,3.4-4.3,5.2-6.5L43,74.1c-1.7,2.2-3.4,4.3-5.2,6.5L38.2,80.9z M38.8,84.7
		c-1.3-0.8-1.5-2.6-0.6-3.8l-0.3-0.3C36.8,82,37,84.1,38.5,85L38.8,84.7z M46.7,86.8c-3,0-5.7-0.7-7.9-2.1L38.5,85
		c2.3,1.4,5,2.1,8.1,2.1L46.7,86.8z M77.5,86.8H46.7v0.4h30.8V86.8z M82.6,86c-1.6,0.5-3.4,0.8-5.1,0.8v0.4c1.8,0,3.5-0.2,5.2-0.8
		L82.6,86z M90.7,78.4c-1.5,3.6-4.5,6.4-8.1,7.6l0.1,0.4c3.8-1.2,6.8-4.1,8.4-7.8L90.7,78.4z"/>
</g>
</svg>
