<svg width="22" height="22" viewBox="0 0 22 22" fill="none" xmlns="http://www.w3.org/2000/svg">
<path d="M18.0313 6.96214L8.12186 1.99504C1.44964 -1.33284 -1.27691 1.39371 2.05921 8.0577L3.53368 10.9984L2.05921 13.9391C-1.2769 20.6031 1.45788 23.3379 8.12187 20.0018L18.0313 15.0512C22.4713 12.8189 22.4795 9.18621 18.0313 6.96214ZM13.8633 11.6574L7.58644 11.6739C7.33932 11.6739 7.12515 11.575 6.96864 11.4185C6.81213 11.262 6.71328 11.0478 6.71328 10.8007C6.71465 10.5696 6.80708 10.3483 6.97053 10.1848C7.13399 10.0214 7.35529 9.92893 7.58644 9.92757L13.8633 9.91109C14.341 9.91109 14.7364 10.3065 14.7364 10.7842C14.7364 11.262 14.341 11.6574 13.8633 11.6574Z" fill="white"/>
</svg>
