<svg width="19" height="18" viewBox="0 0 19 18" fill="none" xmlns="http://www.w3.org/2000/svg">
<path d="M15.37 3.75C14.575 2.95291 13.5211 2.46641 12.3987 2.37838C11.2764 2.29035 10.1596 2.6066 9.24999 3.27C8.29573 2.56023 7.10799 2.23839 5.92593 2.36928C4.74388 2.50017 3.65532 3.07409 2.87947 3.97544C2.10362 4.8768 1.69811 6.03864 1.74459 7.22701C1.79108 8.41538 2.28611 9.542 3.12999 10.38L7.78749 15.045C8.17751 15.4288 8.70278 15.644 9.24999 15.644C9.7972 15.644 10.3225 15.4288 10.7125 15.045L15.37 10.38C16.2457 9.49895 16.7372 8.30721 16.7372 7.065C16.7372 5.8228 16.2457 4.63105 15.37 3.75ZM14.3125 9.345L9.65499 14.0025C9.60199 14.056 9.53891 14.0985 9.4694 14.1275C9.39988 14.1565 9.32531 14.1714 9.24999 14.1714C9.17467 14.1714 9.1001 14.1565 9.03059 14.1275C8.96107 14.0985 8.89799 14.056 8.84499 14.0025L4.18749 9.3225C3.59931 8.72126 3.26995 7.9136 3.26995 7.0725C3.26995 6.2314 3.59931 5.42374 4.18749 4.8225C4.78686 4.23074 5.59522 3.89893 6.43749 3.89893C7.27976 3.89893 8.08813 4.23074 8.68749 4.8225C8.75722 4.8928 8.84017 4.94859 8.93156 4.98667C9.02295 5.02475 9.12098 5.04435 9.21999 5.04435C9.319 5.04435 9.41703 5.02475 9.50843 4.98667C9.59982 4.94859 9.68277 4.8928 9.75249 4.8225C10.3519 4.23074 11.1602 3.89893 12.0025 3.89893C12.8448 3.89893 13.6531 4.23074 14.2525 4.8225C14.8488 5.41586 15.1889 6.21914 15.2001 7.06027C15.2114 7.90139 14.8927 8.71345 14.3125 9.3225V9.345Z" fill="#7B7B7B"/>
</svg>
